<svg width="147" height="31" viewBox="0 0 147 31" fill="none" xmlns="http://www.w3.org/2000/svg">
<path d="M7.87904 28.1846C5.09335 26.6006 4.87486 22.7771 6.5135 19.9914L6.62275 19.3359H19.131L15.6899 25.2897C14.0512 28.0754 10.6647 29.7686 7.87904 28.1846Z" fill="#5065A7"/>
<path d="M23.7741 0.655412C26.5598 2.23943 26.7783 6.06292 25.1396 8.84861L24.8119 9.50407H12.5221L15.9632 3.55034C17.6019 0.764654 21.043 -0.928607 23.7741 0.655412Z" fill="#5576AA"/>
<path d="M24.7567 9.50391L15.6896 25.2895C14.5425 27.3105 12.4123 28.7852 10.2821 28.7852L21.4248 28.8399C23.1181 28.8399 24.7021 27.9659 25.5214 26.4911L29.9458 18.8442L24.7567 9.50391Z" fill="#9FD0DB"/>
<path d="M0.61449 16.7688C-0.20483 15.294 -0.20483 13.4915 0.61449 12.0167L6.18587 2.34872C7.05981 0.873941 8.5892 0 10.2825 0L21.4252 0.0546213C19.295 0.109243 17.1648 1.5294 16.0177 3.55039L6.51359 19.9914C5.36655 22.0124 5.14806 24.5796 6.18587 26.4367L0.61449 16.7688Z" fill="#6EABE1"/>
<path d="M60.2063 13.7644V15.0753C60.2063 17.4787 59.4416 19.445 57.8576 20.9744C56.2736 22.5038 54.3072 23.2139 51.8493 23.2139C49.2275 23.2139 47.0426 22.34 45.3493 20.6467C43.6015 18.8988 42.7821 16.8232 42.7821 14.3653C42.7821 11.9073 43.6561 9.83169 45.3493 8.0838C47.0972 6.33592 49.1728 5.5166 51.6854 5.5166C54.8534 5.5166 57.6391 7.046 59.0593 9.44934L56.219 11.088C55.3997 9.72244 53.6518 8.73926 51.6854 8.73926C50.0468 8.73926 48.7359 9.28547 47.6981 10.3233C46.6602 11.3611 46.1687 12.7266 46.1687 14.3106C46.1687 15.8947 46.7149 17.2602 47.7527 18.298C48.8451 19.3358 50.2106 19.8274 51.9585 19.8274C54.5803 19.8274 56.2736 18.6257 56.9291 16.6047H51.7947V13.6552H60.2063V13.7644Z" fill="#6EABE1"/>
<path d="M68.2365 23.214C66.434 23.214 64.9046 22.6132 63.7029 21.3569C62.5013 20.1006 61.8458 18.5712 61.8458 16.8233C61.8458 15.0754 62.4467 13.546 63.7029 12.2897C64.9592 11.0335 66.4886 10.4326 68.2365 10.4326C70.039 10.4326 71.5684 11.0881 72.7701 12.2897C73.9718 13.4914 74.6272 15.0208 74.6272 16.8233C74.6272 18.6258 73.9718 20.1552 72.7701 21.3569C71.5684 22.5586 70.039 23.214 68.2365 23.214ZM68.2365 20.1552C69.1651 20.1552 69.9844 19.8275 70.5852 19.2267C71.1861 18.6258 71.5138 17.8065 71.5138 16.8233C71.5138 15.8401 71.1861 15.0754 70.5852 14.42C69.9298 13.7645 69.1651 13.4914 68.2365 13.4914C67.308 13.4914 66.4886 13.8191 65.8878 14.42C65.287 15.0754 64.9592 15.8401 64.9592 16.8233C64.9592 17.8065 65.287 18.5712 65.8878 19.2267C66.4886 19.8821 67.308 20.1552 68.2365 20.1552Z" fill="#6EABE1"/>
<path d="M83.3672 5.89893C85.0059 5.89893 86.3714 6.44514 87.4638 7.53757C88.5563 8.62999 89.1571 9.99553 89.1571 11.5795C89.1571 13.1636 88.6109 14.5291 87.4638 15.6215C86.3714 16.714 84.9512 17.2602 83.3672 17.2602H80.3631V22.8315H77.0312V5.89893H83.3672ZM83.3672 14.2014C84.7874 14.2014 85.8252 13.1089 85.8252 11.6342C85.8252 10.1594 84.7874 9.06696 83.3672 9.06696H80.3631V14.2014H83.3672Z" fill="#5065A7"/>
<path d="M101.228 11.7434C102.101 12.6173 102.538 13.8736 102.538 15.403V22.8315H99.3704V15.84C99.3704 14.2014 98.4419 13.3274 96.9671 13.3274C95.3284 13.3274 94.2906 14.3106 94.2906 16.3316V22.8862H91.1772V5.89893H94.2906V12.1258C95.0553 10.9787 96.257 10.4325 97.8956 10.4325C99.2612 10.4325 100.354 10.8695 101.228 11.7434Z" fill="#5065A7"/>
<path d="M114.393 10.7603H117.506V22.8863H114.393V21.4661C113.464 22.6678 112.153 23.214 110.46 23.214C108.821 23.214 107.456 22.6132 106.309 21.3569C105.162 20.1006 104.561 18.5712 104.561 16.8233C104.561 15.0754 105.162 13.546 106.309 12.2897C107.456 11.0335 108.876 10.4326 110.46 10.4326C112.153 10.4326 113.464 11.0335 114.393 12.1805V10.7603ZM111.006 20.2645C111.989 20.2645 112.754 19.9367 113.409 19.3359C114.065 18.6804 114.393 17.8611 114.393 16.8779C114.393 15.8948 114.065 15.0754 113.409 14.42C112.754 13.7645 111.989 13.4368 111.006 13.4368C110.023 13.4368 109.258 13.7645 108.603 14.42C107.947 15.0754 107.674 15.8948 107.674 16.8779C107.674 17.8611 108.002 18.6804 108.603 19.3359C109.258 19.9367 110.077 20.2645 111.006 20.2645Z" fill="#5065A7"/>
<path d="M123.513 12.836C124.114 11.3066 125.534 10.4873 127.173 10.4873V13.9831C126.244 13.8738 125.37 14.0377 124.605 14.5839C123.841 15.0755 123.513 15.8948 123.513 17.0965V22.8863H120.399V10.7604H123.513V12.836Z" fill="#5065A7"/>
<path d="M147 15.4032V22.8863H143.887V15.6216C143.887 14.1469 143.122 13.3275 141.866 13.3275C140.446 13.3275 139.626 14.3107 139.626 16.0586V22.8863H136.513V15.6216C136.513 14.1469 135.748 13.3275 134.492 13.3275C133.126 13.3275 132.198 14.3107 132.198 16.0586V22.8863H129.084V10.7603H132.198V12.0713C132.908 10.9788 134.055 10.4326 135.584 10.4326C137.059 10.4326 138.206 11.0335 138.862 12.1805C139.681 11.0335 140.883 10.4326 142.467 10.4326C145.198 10.4326 147 12.399 147 15.4032Z" fill="#5065A7"/>
<path d="M93.4314 25.6127H93.9261V28.5059H93.4314V26.3961L92.0971 28.5059H91.6024V25.6127H92.0971V27.7251L93.4314 25.6127ZM97.084 28.5059H96.5893V27.2705H95.2604V28.5059H94.763V25.6127H95.2604V26.8667H96.5893V25.6127H97.084V28.5059ZM100.031 26.0137H99.0601V28.5059H98.5654V26.0137H97.6135V25.6127H100.031V26.0137ZM101.499 28.5593C101.107 28.5593 100.787 28.431 100.541 28.1743C100.295 27.9158 100.172 27.5709 100.172 27.1395V27.0486C100.172 26.7616 100.227 26.5058 100.336 26.2811C100.446 26.0547 100.599 25.8783 100.795 25.7517C100.993 25.6234 101.207 25.5592 101.437 25.5592C101.813 25.5592 102.106 25.6831 102.314 25.9309C102.523 26.1786 102.627 26.5334 102.627 26.9951V27.201H100.667C100.674 27.4862 100.757 27.717 100.916 27.8935C101.076 28.0682 101.279 28.1556 101.525 28.1556C101.7 28.1556 101.848 28.1199 101.969 28.0486C102.091 27.9773 102.197 27.8828 102.288 27.7652L102.59 28.0005C102.347 28.3731 101.984 28.5593 101.499 28.5593ZM101.437 25.9656C101.238 25.9656 101.07 26.0387 100.934 26.1849C100.799 26.3293 100.715 26.5325 100.683 26.7945H102.132V26.7571C102.118 26.5058 102.05 26.3114 101.929 26.1742C101.808 26.0351 101.644 25.9656 101.437 25.9656ZM105.646 27.0913C105.646 27.5317 105.545 27.8864 105.344 28.1556C105.142 28.4247 104.87 28.5593 104.526 28.5593C104.174 28.5593 103.898 28.4479 103.697 28.2251V29.6182H103.202V25.6127H103.654L103.678 25.9335C103.879 25.684 104.159 25.5592 104.518 25.5592C104.865 25.5592 105.14 25.6902 105.341 25.9522C105.544 26.2143 105.646 26.5788 105.646 27.0459V27.0913ZM105.151 27.0352C105.151 26.709 105.082 26.4514 104.943 26.2624C104.804 26.0735 104.613 25.979 104.371 25.979C104.071 25.979 103.846 26.1118 103.697 26.3774V27.7598C103.845 28.0237 104.071 28.1556 104.376 28.1556C104.613 28.1556 104.801 28.062 104.94 27.8748C105.081 27.6859 105.151 27.406 105.151 27.0352ZM108.641 28.5059H108.146V27.2705H106.817V28.5059H106.32V25.6127H106.817V26.8667H108.146V25.6127H108.641V28.5059ZM110.638 28.5593C110.246 28.5593 109.927 28.431 109.681 28.1743C109.435 27.9158 109.312 27.5709 109.312 27.1395V27.0486C109.312 26.7616 109.366 26.5058 109.475 26.2811C109.586 26.0547 109.739 25.8783 109.935 25.7517C110.133 25.6234 110.347 25.5592 110.577 25.5592C110.953 25.5592 111.245 25.6831 111.454 25.9309C111.662 26.1786 111.767 26.5334 111.767 26.9951V27.201H109.807C109.814 27.4862 109.897 27.717 110.055 27.8935C110.216 28.0682 110.419 28.1556 110.665 28.1556C110.84 28.1556 110.988 28.1199 111.109 28.0486C111.23 27.9773 111.336 27.8828 111.427 27.7652L111.729 28.0005C111.487 28.3731 111.123 28.5593 110.638 28.5593ZM110.577 25.9656C110.377 25.9656 110.209 26.0387 110.074 26.1849C109.939 26.3293 109.855 26.5325 109.823 26.7945H111.272V26.7571C111.258 26.5058 111.19 26.3114 111.069 26.1742C110.948 26.0351 110.784 25.9656 110.577 25.9656ZM114.459 26.0137H113.489V28.5059H112.994V26.0137H112.042V25.6127H114.459V26.0137ZM118.085 28.5059C118.057 28.4488 118.033 28.3472 118.016 28.201C117.786 28.4399 117.511 28.5593 117.192 28.5593C116.907 28.5593 116.672 28.4791 116.489 28.3187C116.307 28.1565 116.216 27.9515 116.216 27.7037C116.216 27.4024 116.33 27.1689 116.558 27.0031C116.788 26.8355 117.111 26.7518 117.526 26.7518H118.008V26.5245C118.008 26.3516 117.956 26.2143 117.853 26.1127C117.749 26.0093 117.597 25.9576 117.395 25.9576C117.219 25.9576 117.071 26.0022 116.951 26.0913C116.832 26.1804 116.772 26.2883 116.772 26.4148H116.275C116.275 26.2704 116.326 26.1314 116.427 25.9977C116.531 25.8622 116.67 25.7553 116.844 25.6768C117.021 25.5984 117.214 25.5592 117.425 25.5592C117.758 25.5592 118.019 25.643 118.208 25.8105C118.397 25.9763 118.495 26.2054 118.502 26.4977V27.8294C118.502 28.095 118.536 28.3062 118.604 28.4631V28.5059H118.085ZM117.264 28.1288C117.419 28.1288 117.566 28.0887 117.705 28.0085C117.844 27.9283 117.945 27.824 118.008 27.6957V27.102H117.62C117.014 27.102 116.711 27.2794 116.711 27.6342C116.711 27.7892 116.762 27.9105 116.866 27.9978C116.969 28.0852 117.102 28.1288 117.264 28.1288ZM121.644 28.5059H121.149V26.0218H119.818V28.5059H119.321V25.6127H121.644V28.5059ZM124.588 26.0137H123.618V28.5059H123.123V26.0137H122.171V25.6127H124.588V26.0137ZM126.056 28.5593C125.664 28.5593 125.345 28.431 125.099 28.1743C124.853 27.9158 124.73 27.5709 124.73 27.1395V27.0486C124.73 26.7616 124.784 26.5058 124.893 26.2811C125.004 26.0547 125.157 25.8783 125.353 25.7517C125.551 25.6234 125.765 25.5592 125.995 25.5592C126.371 25.5592 126.663 25.6831 126.872 25.9309C127.08 26.1786 127.185 26.5334 127.185 26.9951V27.201H125.225C125.232 27.4862 125.315 27.717 125.473 27.8935C125.634 28.0682 125.837 28.1556 126.083 28.1556C126.258 28.1556 126.406 28.1199 126.527 28.0486C126.648 27.9773 126.754 27.8828 126.845 27.7652L127.147 28.0005C126.905 28.3731 126.541 28.5593 126.056 28.5593ZM125.995 25.9656C125.795 25.9656 125.627 26.0387 125.492 26.1849C125.356 26.3293 125.273 26.5325 125.241 26.7945H126.69V26.7571C126.676 26.5058 126.608 26.3114 126.487 26.1742C126.365 26.0351 126.201 25.9656 125.995 25.9656ZM128.661 27.2732H128.3V28.5059H127.802V25.6127H128.3V26.8373H128.623L129.596 25.6127H130.195L129.051 27.0031L130.292 28.5059H129.663L128.661 27.2732ZM132.503 28.5059C132.475 28.4488 132.451 28.3472 132.434 28.201C132.204 28.4399 131.929 28.5593 131.61 28.5593C131.325 28.5593 131.09 28.4791 130.907 28.3187C130.725 28.1565 130.634 27.9515 130.634 27.7037C130.634 27.4024 130.748 27.1689 130.976 27.0031C131.206 26.8355 131.529 26.7518 131.944 26.7518H132.425V26.5245C132.425 26.3516 132.374 26.2143 132.27 26.1127C132.167 26.0093 132.015 25.9576 131.813 25.9576C131.637 25.9576 131.489 26.0022 131.369 26.0913C131.25 26.1804 131.19 26.2883 131.19 26.4148H130.693C130.693 26.2704 130.744 26.1314 130.845 25.9977C130.949 25.8622 131.088 25.7553 131.262 25.6768C131.439 25.5984 131.632 25.5592 131.843 25.5592C132.176 25.5592 132.437 25.643 132.626 25.8105C132.815 25.9763 132.913 26.2054 132.92 26.4977V27.8294C132.92 28.095 132.954 28.3062 133.022 28.4631V28.5059H132.503ZM131.682 28.1288C131.837 28.1288 131.984 28.0887 132.123 28.0085C132.262 27.9283 132.363 27.824 132.425 27.6957V27.102H132.038C131.432 27.102 131.129 27.2794 131.129 27.6342C131.129 27.7892 131.18 27.9105 131.284 27.9978C131.387 28.0852 131.52 28.1288 131.682 28.1288Z" fill="#5065A7"/>
</svg>
