<svg width="129" height="55" viewBox="0 0 129 55" fill="none" xmlns="http://www.w3.org/2000/svg">
<path fill-rule="evenodd" clip-rule="evenodd" d="M24.6757 0C11.0477 0 0 11.0477 0 24.6757C0 38.3037 11.0477 49.3514 24.6757 49.3514H49.3514V24.6757C49.3514 11.0477 38.3037 0 24.6757 0ZM24.6819 41.8025C34.189 41.8025 41.896 34.1375 41.896 24.6823C41.896 15.2271 34.189 7.56215 24.6819 7.56215C15.1748 7.56215 7.46778 15.2271 7.46778 24.6823C7.46778 34.1375 15.1748 41.8025 24.6819 41.8025Z" fill="#3873D3"/>
<path fill-rule="evenodd" clip-rule="evenodd" d="M21.3441 15.5257C21.3441 15.1475 21.6508 14.8408 22.029 14.8408H27.4763C27.8545 14.8408 28.1612 15.1475 28.1612 15.5257V21.3114H33.9797C34.3579 21.3114 34.6646 21.618 34.6646 21.9963V27.4143C34.6646 27.7926 34.3579 28.0992 33.9797 28.0992H28.1612V33.9328C28.1612 34.311 27.8545 34.6177 27.4763 34.6177H22.029C21.6508 34.6177 21.3441 34.311 21.3441 33.9328V28.0992H15.5256C15.1474 28.0992 14.8407 27.7926 14.8407 27.4143V21.9963C14.8407 21.618 15.1474 21.3114 15.5256 21.3114H21.3441V15.5257Z" fill="#EC3E34"/>
<path d="M66.9543 25.8541C65.7986 26.9948 64.3877 27.5652 62.7217 27.5652C61.0556 27.5652 59.6447 26.9948 58.489 25.8541C57.3483 24.6984 56.7779 23.2875 56.7779 21.6215C56.7779 19.9554 57.3483 18.552 58.489 17.4113C59.6447 16.2556 61.0556 15.6777 62.7217 15.6777C64.3877 15.6777 65.7986 16.2556 66.9543 17.4113C68.11 18.552 68.6879 19.9554 68.6879 21.6215C68.6879 23.2875 68.11 24.6984 66.9543 25.8541ZM60.5378 23.8504C61.1232 24.4357 61.8511 24.7284 62.7217 24.7284C63.5922 24.7284 64.3202 24.4357 64.9055 23.8504C65.4909 23.265 65.7836 22.522 65.7836 21.6215C65.7836 20.7209 65.4909 19.9779 64.9055 19.3926C64.3202 18.8072 63.5922 18.5145 62.7217 18.5145C61.8511 18.5145 61.1232 18.8072 60.5378 19.3926C59.9674 19.9779 59.6822 20.7209 59.6822 21.6215C59.6822 22.522 59.9674 23.265 60.5378 23.8504Z" fill="#3873D3"/>
<path d="M73.1684 19.1899C73.1684 19.4901 73.3635 19.7378 73.7538 19.9329C74.159 20.113 74.6468 20.2781 75.2172 20.4282C75.7876 20.5633 76.3579 20.7434 76.9283 20.9686C77.4986 21.1787 77.9789 21.5389 78.3692 22.0492C78.7744 22.5596 78.9771 23.1975 78.9771 23.9629C78.9771 25.1187 78.5418 26.0117 77.6712 26.6421C76.8157 27.2575 75.7425 27.5652 74.4517 27.5652C72.1403 27.5652 70.5643 26.6721 69.7237 24.886L72.2453 23.4676C72.5755 24.4432 73.311 24.9311 74.4517 24.9311C75.4874 24.9311 76.0052 24.6083 76.0052 23.9629C76.0052 23.6628 75.8026 23.4226 75.3973 23.2425C75.0071 23.0474 74.5268 22.8748 73.9564 22.7247C73.386 22.5746 72.8157 22.387 72.2453 22.1618C71.675 21.9367 71.1872 21.5839 70.7819 21.1036C70.3917 20.6083 70.1965 19.9929 70.1965 19.2575C70.1965 18.1468 70.6018 17.2762 71.4123 16.6458C72.2378 16.0004 73.2585 15.6777 74.4742 15.6777C75.3898 15.6777 76.2228 15.8879 76.9733 16.3081C77.7238 16.7134 78.3166 17.2988 78.7519 18.0642L76.2754 19.4151C75.9151 18.6496 75.3148 18.2669 74.4742 18.2669C74.099 18.2669 73.7838 18.3494 73.5286 18.5145C73.2885 18.6796 73.1684 18.9048 73.1684 19.1899Z" fill="#3873D3"/>
<path d="M90.282 25.8541C89.1263 26.9948 87.7154 27.5652 86.0493 27.5652C84.3833 27.5652 82.9724 26.9948 81.8167 25.8541C80.6759 24.6984 80.1056 23.2875 80.1056 21.6215C80.1056 19.9554 80.6759 18.552 81.8167 17.4113C82.9724 16.2556 84.3833 15.6777 86.0493 15.6777C87.7154 15.6777 89.1263 16.2556 90.282 17.4113C91.4377 18.552 92.0156 19.9554 92.0156 21.6215C92.0156 23.2875 91.4377 24.6984 90.282 25.8541ZM83.8654 23.8504C84.4508 24.4357 85.1788 24.7284 86.0493 24.7284C86.9199 24.7284 87.6478 24.4357 88.2332 23.8504C88.8186 23.265 89.1112 22.522 89.1112 21.6215C89.1112 20.7209 88.8186 19.9779 88.2332 19.3926C87.6478 18.8072 86.9199 18.5145 86.0493 18.5145C85.1788 18.5145 84.4508 18.8072 83.8654 19.3926C83.2951 19.9779 83.0099 20.7209 83.0099 21.6215C83.0099 22.522 83.2951 23.265 83.8654 23.8504Z" fill="#3873D3"/>
<path d="M100.318 15.6777C101.548 15.6777 102.562 16.0905 103.357 16.916C104.168 17.7415 104.573 18.8822 104.573 20.3382V27.25H101.669V20.6984C101.669 19.9479 101.466 19.3776 101.061 18.9873C100.655 18.5821 100.115 18.3794 99.4396 18.3794C98.6891 18.3794 98.0888 18.6121 97.6385 19.0774C97.1882 19.5427 96.9631 20.2406 96.9631 21.1712V27.25H94.0587V15.9929H96.9631V17.2537C97.6685 16.2031 98.7867 15.6777 100.318 15.6777Z" fill="#3873D3"/>
<path d="M65.9187 38.5314H68.823V49.7884H65.9187V48.4601C65.0481 49.5558 63.8249 50.1036 62.2489 50.1036C60.7479 50.1036 59.4571 49.5333 58.3764 48.3926C57.3108 47.2368 56.7779 45.826 56.7779 44.1599C56.7779 42.4939 57.3108 41.0905 58.3764 39.9498C59.4571 38.794 60.7479 38.2162 62.2489 38.2162C63.8249 38.2162 65.0481 38.764 65.9187 39.8597V38.5314ZM60.5603 46.4564C61.1457 47.0417 61.8886 47.3344 62.7892 47.3344C63.6898 47.3344 64.4327 47.0417 65.0181 46.4564C65.6185 45.856 65.9187 45.0905 65.9187 44.1599C65.9187 43.2293 65.6185 42.4713 65.0181 41.886C64.4327 41.2856 63.6898 40.9854 62.7892 40.9854C61.8886 40.9854 61.1457 41.2856 60.5603 41.886C59.9749 42.4713 59.6822 43.2293 59.6822 44.1599C59.6822 45.0905 59.9749 45.856 60.5603 46.4564Z" fill="#3873D3"/>
<path d="M78.0082 38.2162C79.5242 38.2162 80.815 38.794 81.8807 39.9498C82.9614 41.0905 83.5017 42.4939 83.5017 44.1599C83.5017 45.826 82.9614 47.2368 81.8807 48.3926C80.815 49.5333 79.5242 50.1036 78.0082 50.1036C76.4323 50.1036 75.2165 49.5558 74.361 48.4601V54.2913H71.4566V38.5314H74.361V39.8597C75.2165 38.764 76.4323 38.2162 78.0082 38.2162ZM75.239 46.4564C75.8244 47.0417 76.5673 47.3344 77.4679 47.3344C78.3685 47.3344 79.1114 47.0417 79.6968 46.4564C80.2972 45.856 80.5974 45.0905 80.5974 44.1599C80.5974 43.2293 80.2972 42.4713 79.6968 41.886C79.1114 41.2856 78.3685 40.9854 77.4679 40.9854C76.5673 40.9854 75.8244 41.2856 75.239 41.886C74.6536 42.4713 74.361 43.2293 74.361 44.1599C74.361 45.0905 74.6536 45.856 75.239 46.4564Z" fill="#3873D3"/>
<path d="M91.7472 41.3231H89.2031V46.0061C89.2031 46.3963 89.3006 46.6815 89.4957 46.8616C89.6909 47.0417 89.976 47.1468 90.3513 47.1768C90.7265 47.1918 91.1918 47.1843 91.7472 47.1543V49.7884C89.7509 50.0136 88.34 49.826 87.5145 49.2256C86.704 48.6252 86.2987 47.552 86.2987 46.0061V41.3231H84.34V38.5314H86.2987V36.2574L89.2031 35.3794V38.5314H91.7472V41.3231Z" fill="#3873D3"/>
<path d="M95.8971 45.3532C96.2874 46.764 97.3456 47.4695 99.0716 47.4695C100.182 47.4695 101.023 47.0943 101.593 46.3438L103.935 47.6946C102.824 49.3006 101.188 50.1036 99.0266 50.1036C97.1654 50.1036 95.672 49.5408 94.5463 48.4151C93.4206 47.2894 92.8577 45.871 92.8577 44.1599C92.8577 42.4638 93.4131 41.053 94.5238 39.9272C95.6345 38.7865 97.0604 38.2162 98.8015 38.2162C100.453 38.2162 101.811 38.7865 102.877 39.9272C103.957 41.068 104.498 42.4789 104.498 44.1599C104.498 44.5351 104.46 44.9329 104.385 45.3532H95.8971ZM95.8521 43.1017H101.593C101.428 42.3363 101.083 41.7659 100.558 41.3907C100.047 41.0154 99.4619 40.8278 98.8015 40.8278C98.021 40.8278 97.3756 41.0304 96.8653 41.4357C96.3549 41.8259 96.0172 42.3813 95.8521 43.1017Z" fill="#3873D3"/>
<path d="M116.904 49.7884H113.527L109.429 44.6777V49.7884H106.525V34.0285H109.429V43.4845L113.302 38.5314H116.769L112.244 44.0924L116.904 49.7884Z" fill="#3873D3"/>
<path d="M126.096 38.5314H129V49.7884H126.096V48.4601C125.225 49.5558 124.002 50.1036 122.426 50.1036C120.925 50.1036 119.634 49.5333 118.553 48.3926C117.488 47.2368 116.955 45.826 116.955 44.1599C116.955 42.4939 117.488 41.0905 118.553 39.9498C119.634 38.794 120.925 38.2162 122.426 38.2162C124.002 38.2162 125.225 38.764 126.096 39.8597V38.5314ZM120.737 46.4564C121.323 47.0417 122.066 47.3344 122.966 47.3344C123.867 47.3344 124.61 47.0417 125.195 46.4564C125.795 45.856 126.096 45.0905 126.096 44.1599C126.096 43.2293 125.795 42.4713 125.195 41.886C124.61 41.2856 123.867 40.9854 122.966 40.9854C122.066 40.9854 121.323 41.2856 120.737 41.886C120.152 42.4713 119.859 43.2293 119.859 44.1599C119.859 45.0905 120.152 45.856 120.737 46.4564Z" fill="#3873D3"/>
</svg>
