<svg width="195" height="56" viewBox="0 0 195 56" fill="none" xmlns="http://www.w3.org/2000/svg">
<g clip-path="url(#clip0_4_67)">
<path fill-rule="evenodd" clip-rule="evenodd" d="M68.3472 29.0172C70.6955 29.0436 72.9682 29.3669 75.1367 28.3853C76.8933 27.6092 77.8349 25.996 77.7577 23.9037C77.6936 22.0951 76.996 20.6489 75.2144 19.9643C72.9818 19.0989 70.6694 19.3702 68.3456 19.4606C68.3466 22.7025 68.3456 25.8024 68.3472 29.0172ZM68.2815 32.0395C68.2815 35.1272 68.2809 37.9687 68.2809 40.9265C67.0687 40.9261 65.8669 40.9265 64.6531 40.9265L64.6536 16.3208C66.758 16.3208 71.0313 16.3998 73.4975 16.4511C74.0147 16.4627 74.5428 16.5287 75.059 16.6192C79.165 17.3423 81.36 19.6286 81.5019 23.2835C81.6708 27.7006 79.6556 30.568 75.5246 31.5368C74.0522 31.8852 72.4901 31.9114 70.9536 32.0274C70.1407 32.0918 69.3143 32.0405 68.2815 32.0389V32.0395Z" fill="#2B3D43"/>
<path fill-rule="evenodd" clip-rule="evenodd" d="M93.5609 31.8213L98.5183 39.0673C97.1366 37.0259 95.7674 34.9862 94.502 32.8812C94.2189 32.4022 93.9081 32.0674 93.5609 31.8213Z" fill="#2B3D43"/>
<path fill-rule="evenodd" clip-rule="evenodd" d="M89.4026 28.2689V19.3954C89.3651 20.0028 89.338 21.9275 89.338 23.852C89.339 21.9267 89.3641 19.9904 89.4026 19.383V19.3822C89.4287 19.3822 89.8933 19.4217 90.1128 19.4217C92.0753 19.4723 94.0764 19.4478 95.9998 19.8094C97.9754 20.1698 98.892 21.6049 98.9175 23.6453C98.9571 25.8525 98.053 27.5846 96.1938 27.972C94.1927 28.3721 91.4554 28.2045 89.4026 28.2689ZM95.1098 28.3198H89.4026V28.3066H95.1098V28.3198ZM97.1505 31.1487C97.4727 30.9553 97.6912 30.8136 97.9237 30.7101C101.618 29.0695 103.127 26.3961 102.597 22.3667C102.173 19.1369 100.054 17.2262 96.1807 16.5932C95.7037 16.5156 95.2125 16.4511 94.7344 16.4383C92.9538 16.4124 91.1842 16.4128 89.4026 16.3739C88.681 16.3599 87.9438 16.3479 87.2201 16.322C87.1575 16.3208 87.1044 16.322 87.0527 16.322L87.0016 16.3208H85.84V40.9261H85.9297H89.4026V40.9392H85.9297V40.9522C87.1309 40.9522 88.2144 40.9522 89.4026 40.9522C89.4026 40.8362 89.4026 40.7329 89.4026 40.6293V40.6153V34.7001C89.4026 35.191 89.4026 35.6699 89.4026 36.1604C89.4026 35.6691 89.4026 35.179 89.4026 34.6883V34.7001C89.4026 34.3776 89.4026 34.068 89.4157 33.7451C89.4157 33.3574 89.4026 33.0221 89.4026 32.7508V32.7369V32.6336V32.6344V31.4203H91.3407H92.4111H93.2896L92.7349 30.6069L93.2896 31.4075L93.5613 31.807C93.9096 32.0527 94.2182 32.3891 94.5024 32.8669C95.7688 34.9716 97.1364 37.013 98.5176 39.0538C98.7637 39.428 99.0082 39.7896 99.2663 40.1642C99.4989 40.5252 99.9248 40.952 100.299 40.9909C101.371 41.1063 102.456 41.0297 103.85 41.0297C101.502 37.5681 99.344 34.391 97.1505 31.1487Z" fill="#2B3D43"/>
<path fill-rule="evenodd" clip-rule="evenodd" d="M112.553 37.7878H112.167V37.2325V35.011C112.178 34.3644 112.177 33.7069 112.165 33.0478L112.167 30.8379V30.1289H113.149H113.715H121.061C121.657 29.9864 121.965 29.6254 122.055 28.9797L122.055 27.1966V27.1182H112.849H112.167V26.4992V23.4246V23.102V19.9638V19.4347H112.631H123.438V17.097C123.438 17.0838 123.436 17.0841 123.436 17.0841L123.438 16.3208H122.909H112.167H110.281H109.288H108.565V17.6912V40.9129H108.666C109.314 40.9129 109.945 40.9132 110.577 40.9132C111.106 40.9129 111.636 40.9132 112.165 40.9132C116.039 40.9129 119.86 40.9132 123.733 40.9132L123.734 39.7637V37.7877L112.553 37.7878Z" fill="#2B3D43"/>
<path fill-rule="evenodd" clip-rule="evenodd" d="M131.806 29.0172C134.156 29.0436 136.426 29.3669 138.608 28.3853C140.352 27.6092 141.294 25.996 141.229 23.9037C141.166 22.0951 140.455 20.6489 138.673 19.9643C136.454 19.0989 134.141 19.3702 131.804 19.4606C131.806 22.7025 131.804 25.8024 131.806 29.0172ZM131.742 32.0395C131.742 35.1272 131.74 37.9687 131.74 40.9265C130.527 40.9261 129.326 40.9265 128.112 40.9265L128.113 16.3208C130.216 16.3208 134.488 16.3998 136.955 16.4511C137.487 16.4627 138.001 16.5287 138.517 16.6192C142.623 17.3423 144.83 19.6286 144.96 23.2835C145.13 27.7006 143.126 30.568 138.995 31.5368C137.51 31.8852 135.948 31.9114 134.424 32.0274C133.6 32.0918 132.771 32.0405 131.741 32.0389L131.742 32.0395Z" fill="#2B3D43"/>
<path fill-rule="evenodd" clip-rule="evenodd" d="M150.667 41.1842H146.42V36.9487H150.667V41.1842Z" fill="#2B3D43"/>
<path fill-rule="evenodd" clip-rule="evenodd" d="M195.001 16.1685H179.393V19.577H190.432L179.07 37.8021V41.2109H195.001V37.8021H183.835L195.001 19.577V16.1685Z" fill="#2B3D43"/>
<path fill-rule="evenodd" clip-rule="evenodd" d="M171.066 16.3208V25.1942V31.5368C171.22 34.7 168.378 37.5684 165.395 37.6458C162.427 37.5813 159.495 34.7139 159.65 31.5368L159.652 25.1942V16.3208H156.036V32.3503C156.036 35.2565 157.455 37.8394 159.65 39.5056C161.212 40.6804 163.24 41.3914 165.356 41.417H165.358C165.37 41.417 165.383 41.417 165.395 41.417C165.396 41.417 165.408 41.417 165.421 41.417H165.422C167.554 41.3911 169.501 40.6808 171.063 39.5056C173.259 37.8384 174.678 35.2565 174.678 32.3503L174.679 16.3208H171.066Z" fill="#2B3D43"/>
<path fill-rule="evenodd" clip-rule="evenodd" d="M38.8836 4.98584H5.00302V42.2257C5.00302 49.079 10.498 54.8736 17.3491 54.8736C17.8293 54.8731 51.2864 54.8736 51.2864 54.8736L51.287 17.394C51.287 10.5407 45.7336 4.98615 38.8835 4.98584H38.8836Z" fill="#3DB347"/>
<path fill-rule="evenodd" clip-rule="evenodd" d="M19.4583 15.4489C19.4583 15.4019 19.4684 15.3866 19.4944 15.3605C19.5158 15.3291 19.5361 15.3241 19.5831 15.3241L28.2757 15.3238C29.2552 15.3238 30.1933 15.5065 31.0536 15.8769C31.9193 16.2415 32.6804 16.7531 33.3217 17.3998C33.9583 18.0517 34.474 18.8185 34.8545 19.679C34.98 19.9552 35.0787 20.3624 35.1673 20.8161C34.1201 20.6175 32.8108 20.4666 31.3665 20.5293C31.3773 20.576 31.3872 20.6283 31.3977 20.6857C31.388 20.6282 31.3769 20.5761 31.3665 20.5293C31.3562 20.4873 31.3457 20.4511 31.3352 20.4249C31.2048 20.0595 31.0067 19.7364 30.746 19.4547C30.4905 19.1782 30.1725 18.949 29.8023 18.7767C29.2763 18.5311 27.9096 18.5161 27.894 18.5161L24.9639 18.5158C24.6307 18.5158 24.3224 18.6411 24.0879 18.8759C23.8482 19.1102 23.7228 19.4131 23.7228 19.7469L23.7239 20.5448C22.0709 20.4351 20.584 20.6335 19.4579 20.8683L19.4583 15.4489ZM27.4356 21.7548C26.5653 21.2172 25.6834 20.8943 24.8336 20.7117L24.8337 19.7469C24.8337 19.7099 24.8439 19.6895 24.8699 19.6635C24.8971 19.6372 24.9167 19.6269 24.9639 19.6269L27.8944 19.6265C28.3893 19.6265 29.1663 19.7155 29.333 19.7886C29.573 19.8977 29.7711 20.0389 29.9327 20.2111C30.0588 20.3519 30.1568 20.5031 30.235 20.6702C29.3232 20.8417 28.3737 21.1811 27.4356 21.7548ZM23.7239 21.7077C24.0829 21.7389 24.4582 21.8071 24.8336 21.9061C25.6888 22.1303 26.5645 22.5373 27.4092 23.2101L27.431 23.2357C27.431 23.2304 27.4352 23.231 27.4352 23.231C27.4404 23.2305 27.4404 23.231 27.4457 23.2363L27.4674 23.21C28.4316 22.4378 29.4321 22.0159 30.3915 21.8124C30.7674 21.7338 31.137 21.6872 31.4969 21.6664C31.497 21.661 31.4969 21.6611 31.4969 21.656C33.8538 21.5672 35.8922 22.1724 36.5022 22.3861C36.4816 22.1463 36.4448 21.9011 36.4083 21.6507L36.4135 21.656C36.3104 20.7586 36.132 19.8201 35.8714 19.2308C35.4388 18.2449 34.8442 17.3635 34.1143 16.6229C33.3741 15.8661 32.4875 15.2721 31.4916 14.8495C30.4859 14.4268 29.4061 14.208 28.2747 14.208H19.584C19.245 14.208 18.9419 14.3332 18.7072 14.573C18.4683 14.8077 18.3474 15.1103 18.3474 15.4493V21.1499V21.4626V22.4121C18.8953 22.2136 21.095 21.4993 23.7239 21.7077Z" fill="#2B3D43"/>
<path fill-rule="evenodd" clip-rule="evenodd" d="M27.41 26.2972L27.4311 26.3234L27.4352 26.3182C27.4405 26.3182 27.4405 26.3234 27.4457 26.3234L27.4675 26.2972C28.4317 25.5256 29.4424 25.103 30.402 24.8997C30.3873 25.3273 30.3809 25.6455 30.3289 25.8594C30.2618 26.0465 30.1831 26.1774 30.0631 26.3026C29.9016 26.4796 29.7031 26.6208 29.4635 26.7303C29.2974 26.8029 28.5146 26.8921 28.0244 26.8921L24.9699 26.8915C24.9229 26.8915 24.9011 26.8765 24.8753 26.8556C24.8501 26.8241 24.8388 26.8086 24.8388 26.7669L24.8398 25.8073H24.8339V24.9987C25.6891 25.2228 26.5647 25.6247 27.4101 26.2972L27.41 26.2972ZM36.5239 24.2318C35.4447 23.9243 33.6345 23.5487 31.5333 23.6114C31.5335 24.044 31.528 24.425 31.5176 24.7588C32.994 24.6959 34.2968 24.9049 35.2353 25.1187C35.1573 25.7392 35.0579 26.6259 34.9381 26.9441C34.6305 27.7787 34.1508 28.5141 33.5251 29.1296C32.8896 29.7449 32.0809 30.2404 31.1215 30.5951C30.1832 30.9495 28.9212 31.1427 27.5656 31.1427L25.0848 31.1426C24.7504 31.1426 24.4477 31.268 24.2078 31.5078C23.9738 31.7423 23.8479 32.045 23.8479 32.3841L23.8482 38.1891C23.8482 38.2359 23.8323 38.2569 23.8116 38.2777C23.7802 38.3087 23.7647 38.3142 23.7229 38.3142L19.5781 38.314C19.537 38.314 19.5153 38.3093 19.4893 38.2777C19.469 38.2564 19.458 38.2361 19.458 38.1892L19.4584 25.1706C20.4696 24.92 22.0023 24.6598 23.7229 24.7953L23.7239 26.7824C23.7239 27.1215 23.8479 27.424 24.088 27.6586C24.3281 27.8931 24.6302 28.0186 24.964 28.0186L28.0306 28.0181L24.9699 28.0029H28.0246C28.0411 28.0029 29.4061 27.9822 29.9327 27.737C30.3029 27.5698 30.621 27.3405 30.8764 27.0642C31.1381 26.7824 31.2936 26.4696 31.4239 26.1097C31.4292 26.0836 31.4395 26.0524 31.4498 26.0212C31.4501 26.0156 31.4498 26.0107 31.4498 26.0002C31.4819 25.6817 31.5073 25.2805 31.5176 24.7589C31.5287 24.4249 31.5333 24.0443 31.5333 23.6115C31.1686 23.6268 30.7982 23.6636 30.4176 23.7262C29.4536 23.8873 28.4416 24.2321 27.4352 24.8423C26.5653 24.3099 25.6834 23.9818 24.8336 23.7992C24.4583 23.7207 24.0828 23.6636 23.7229 23.6375C21.4445 23.4861 19.4735 23.9088 18.3474 24.2373V25.4105V25.5044V38.1891C18.3474 38.5281 18.4673 38.8306 18.702 39.0653C18.9376 39.305 19.2391 39.4304 19.5778 39.4304L23.7239 39.43C24.063 39.43 24.3642 39.3053 24.5989 39.0653C24.8337 38.8303 24.9586 38.5281 24.9586 38.1892L24.9592 32.3837C24.9592 32.3366 24.9691 32.3163 24.9951 32.2954C25.0214 32.2692 25.0367 32.2589 25.0838 32.2589L27.5659 32.2586C29.0463 32.2586 30.4541 32.0346 31.5126 31.6382C32.6126 31.2259 33.551 30.6474 34.2968 29.9277C35.0481 29.1969 35.6157 28.3263 35.9807 27.3354C36.1216 26.9544 36.325 25.8384 36.4135 25.2908L36.3984 25.2856C36.4559 24.9358 36.497 24.5764 36.5239 24.2318H36.5239Z" fill="#2B3D43"/>
<path fill-rule="evenodd" clip-rule="evenodd" d="M1.283 1.28331V37.8812C1.283 44.4998 6.53302 49.8879 12.9878 49.8879L46.2895 49.8875V13.0495C46.2895 6.56179 41.0074 1.28357 34.5265 1.28357L1.283 1.28331ZM47.567 51.1707H12.9884C9.52069 51.1707 6.25147 49.768 3.78535 47.2228C1.34566 44.6982 0 41.3813 0 37.8817L0.000159116 0H34.5265C41.7165 0 47.5664 5.85757 47.5664 13.0499L47.567 51.1707Z" fill="#2B3D43"/>
</g>
<defs>
<clipPath id="clip0_4_67">
<rect width="195" height="55.2857" fill="white"/>
</clipPath>
</defs>
</svg>
